<svg width="3488" height="3493" xmlns="http://www.w3.org/2000/svg" xmlns:xlink="http://www.w3.org/1999/xlink" xml:space="preserve" overflow="hidden"><defs><clipPath id="clip0"><rect x="510" y="-441" width="3488" height="3493"/></clipPath></defs><g clip-path="url(#clip0)" transform="translate(-510 441)"><path d="M2573 1305C2573 1477.87 2432.64 1618 2259.5 1618 2086.36 1618 1946 1477.87 1946 1305 1946 1132.13 2086.36 992 2259.5 992 2432.64 992 2573 1132.13 2573 1305Z" stroke="#000000" stroke-width="48.125" stroke-miterlimit="8" stroke-opacity="0" fill="none" fill-rule="evenodd"/><path d="M2436 1310C2436 1406.65 2357.65 1485 2261 1485 2164.35 1485 2086 1406.65 2086 1310 2086 1213.35 2164.35 1135 2261 1135 2357.65 1135 2436 1213.35 2436 1310Z" stroke="#000000" stroke-width="48.125" stroke-miterlimit="8" stroke-opacity="0" fill="none" fill-rule="evenodd"/><path d="M2572.86 1305 1946 1305" stroke="#000000" stroke-width="48.125" stroke-miterlimit="8" stroke-opacity="0" fill="none" fill-rule="evenodd"/><path d="M2259 3051.62 2259 992" stroke="#000000" stroke-width="48.125" stroke-miterlimit="8" stroke-opacity="0" fill="none" fill-rule="evenodd"/><path d="M1945 1305C1945 1132.13 2085.13 992 2258 992 2430.86 992 2571 1132.13 2571 1305 2571 1477.87 2430.86 1618 2258 1618 2085.13 1618 1945 1477.87 1945 1305Z" stroke="#000000" stroke-width="48.125" stroke-miterlimit="8" stroke-opacity="0" fill="none" fill-rule="evenodd"/><path d="M2082 1300C2082 1203.35 2160.13 1125 2256.5 1125 2352.87 1125 2431 1203.35 2431 1300 2431 1396.65 2352.87 1475 2256.5 1475 2160.13 1475 2082 1396.65 2082 1300Z" stroke="#000000" stroke-width="48.125" stroke-miterlimit="8" stroke-opacity="0" fill="none" fill-rule="evenodd"/><path d="M1945 1305 2571.85 1305" stroke="#000000" stroke-width="48.125" stroke-miterlimit="8" stroke-opacity="0" fill="none" fill-rule="evenodd"/><path d="M2258-441 2258 1618.62" stroke="#000000" stroke-width="48.125" stroke-miterlimit="8" stroke-opacity="0" fill="none" fill-rule="evenodd"/><path d="M2255.5 1611C2082.36 1611 1942 1470.64 1942 1297.5 1942 1124.36 2082.36 984 2255.5 984 2428.64 984 2569 1124.36 2569 1297.5 2569 1470.64 2428.64 1611 2255.5 1611Z" stroke="#000000" stroke-width="48.125" stroke-miterlimit="8" stroke-opacity="0" fill="none" fill-rule="evenodd"/><path d="M2250.5 1474C2154.13 1474 2076 1395.87 2076 1299.5 2076 1203.13 2154.13 1125 2250.5 1125 2346.87 1125 2425 1203.13 2425 1299.5 2425 1395.87 2346.87 1474 2250.5 1474Z" stroke="#000000" stroke-width="48.125" stroke-miterlimit="8" stroke-opacity="0" fill="none" fill-rule="evenodd"/><path d="M2256 1610.86 2256 984" stroke="#000000" stroke-width="48.125" stroke-miterlimit="8" stroke-opacity="0" fill="none" fill-rule="evenodd"/><path d="M510 1298 2569.62 1298" stroke="#000000" stroke-width="48.125" stroke-miterlimit="8" stroke-opacity="0" fill="none" fill-rule="evenodd"/><path d="M2251 977C2423.87 977 2564 1117.13 2564 1290 2564 1462.86 2423.87 1603 2251 1603 2078.14 1603 1938 1462.86 1938 1290 1938 1117.13 2078.14 977 2251 977Z" stroke="#000000" stroke-width="48.125" stroke-miterlimit="8" stroke-opacity="0" fill="none" fill-rule="evenodd"/><path d="M2256 1114C2352.65 1114 2431 1192.13 2431 1288.5 2431 1384.87 2352.65 1463 2256 1463 2159.35 1463 2081 1384.87 2081 1288.5 2081 1192.13 2159.35 1114 2256 1114Z" stroke="#000000" stroke-width="48.125" stroke-miterlimit="8" stroke-opacity="0" fill="none" fill-rule="evenodd"/><path d="M2251 977 2251 1603.85" stroke="#000000" stroke-width="48.125" stroke-miterlimit="8" stroke-opacity="0" fill="none" fill-rule="evenodd"/><path d="M3997.62 1290 1938 1290" stroke="#000000" stroke-width="48.125" stroke-miterlimit="8" stroke-opacity="0" fill="none" fill-rule="evenodd"/><path d="M2280.06 466.562 2280.06 1305.08 2231.94 1305.08 2231.94 466.562ZM2135.69 490.625 2256 250 2376.31 490.625Z"/></g></svg>