<svg width="1128" height="1128" xmlns="http://www.w3.org/2000/svg" xmlns:xlink="http://www.w3.org/1999/xlink" xml:space="preserve" overflow="hidden"><defs><clipPath id="clip0"><rect x="337" y="712" width="1128" height="1128"/></clipPath></defs><g clip-path="url(#clip0)" transform="translate(-337 -712)"><path d="M910.167 929.5 910.167 1276 891.834 1276 891.833 929.5ZM855.167 938.667 901 847 946.833 938.667Z" fill="#000000" fill-opacity="0"/><path d="M827 1275.5C827 1234.35 860.131 1201 901 1201 941.869 1201 975 1234.35 975 1275.5 975 1316.65 941.869 1350 901 1350 860.131 1350 827 1316.65 827 1275.5Z" stroke="#000000" stroke-width="18.3333" stroke-miterlimit="8" fill="none" fill-rule="evenodd"/><path d="M756 1275.5C756 1195.14 820.919 1130 901 1130 981.081 1130 1046 1195.14 1046 1275.5 1046 1355.86 981.081 1421 901 1421 820.919 1421 756 1355.86 756 1275.5Z" stroke="#000000" stroke-width="18.3333" stroke-miterlimit="8" fill="none" fill-rule="evenodd"/><path d="M756 1276 1046.58 1276" stroke="#000000" stroke-width="18.3333" stroke-miterlimit="8" fill="none" fill-rule="evenodd"/><path d="M901 1130 901 1420.58" stroke="#000000" stroke-width="18.3333" stroke-miterlimit="8" fill="none" fill-rule="evenodd"/><path d="M901 712 901 1275.98" stroke="#000000" stroke-width="13.75" stroke-miterlimit="8" fill="none" fill-rule="evenodd"/><path d="M901 1201C941.869 1201 975 1234.35 975 1275.5 975 1316.65 941.869 1350 901 1350 860.131 1350 827 1316.65 827 1275.5 827 1234.35 860.131 1201 901 1201Z" stroke="#000000" stroke-width="18.3333" stroke-miterlimit="8" stroke-opacity="0" fill="none" fill-rule="evenodd"/><path d="M901 1130C981.081 1130 1046 1195.14 1046 1275.5 1046 1355.86 981.081 1421 901 1421 820.919 1421 756 1355.86 756 1275.5 756 1195.14 820.919 1130 901 1130Z" stroke="#000000" stroke-width="18.3333" stroke-miterlimit="8" stroke-opacity="0" fill="none" fill-rule="evenodd"/><path d="M901 1130 901 1420.58" stroke="#000000" stroke-width="18.3333" stroke-miterlimit="8" stroke-opacity="0" fill="none" fill-rule="evenodd"/><path d="M1046.58 1275 756 1275" stroke="#000000" stroke-width="18.3333" stroke-miterlimit="8" stroke-opacity="0" fill="none" fill-rule="evenodd"/><path d="M1464.98 1275 901 1275" stroke="#000000" stroke-width="13.75" stroke-miterlimit="8" stroke-opacity="0" fill="none" fill-rule="evenodd"/><path d="M976 1275.5C976 1316.65 942.645 1350 901.5 1350 860.355 1350 827 1316.65 827 1275.5 827 1234.35 860.355 1201 901.5 1201 942.645 1201 976 1234.35 976 1275.5Z" stroke="#000000" stroke-width="18.3333" stroke-miterlimit="8" stroke-opacity="0" fill="none" fill-rule="evenodd"/><path d="M1046 1275.5C1046 1355.86 981.081 1421 901 1421 820.919 1421 756 1355.86 756 1275.5 756 1195.14 820.919 1130 901 1130 981.081 1130 1046 1195.14 1046 1275.5Z" stroke="#000000" stroke-width="18.3333" stroke-miterlimit="8" stroke-opacity="0" fill="none" fill-rule="evenodd"/><path d="M1046.58 1276 756 1276" stroke="#000000" stroke-width="18.3333" stroke-miterlimit="8" stroke-opacity="0" fill="none" fill-rule="evenodd"/><path d="M901 1420.58 901 1130" stroke="#000000" stroke-width="18.3333" stroke-miterlimit="8" stroke-opacity="0" fill="none" fill-rule="evenodd"/><path d="M901 1839.98 901 1276" stroke="#000000" stroke-width="13.75" stroke-miterlimit="8" stroke-opacity="0" fill="none" fill-rule="evenodd"/><path d="M900.5 1350C859.355 1350 826 1316.65 826 1275.5 826 1234.35 859.355 1201 900.5 1201 941.645 1201 975 1234.35 975 1275.5 975 1316.65 941.645 1350 900.5 1350Z" stroke="#000000" stroke-width="18.3333" stroke-miterlimit="8" stroke-opacity="0" fill="none" fill-rule="evenodd"/><path d="M901 1421C820.919 1421 756 1355.86 756 1275.5 756 1195.14 820.919 1130 901 1130 981.081 1130 1046 1195.14 1046 1275.5 1046 1355.86 981.081 1421 901 1421Z" stroke="#000000" stroke-width="18.3333" stroke-miterlimit="8" stroke-opacity="0" fill="none" fill-rule="evenodd"/><path d="M901 1420.58 901 1130" stroke="#000000" stroke-width="18.3333" stroke-miterlimit="8" stroke-opacity="0" fill="none" fill-rule="evenodd"/><path d="M756 1275 1046.58 1275" stroke="#000000" stroke-width="18.3333" stroke-miterlimit="8" stroke-opacity="0" fill="none" fill-rule="evenodd"/><path d="M337 1275 900.979 1275" stroke="#000000" stroke-width="13.75" stroke-miterlimit="8" stroke-opacity="0" fill="none" fill-rule="evenodd"/></g></svg>