<?xml version="1.0" standalone="no"?><!DOCTYPE svg PUBLIC "-//W3C//DTD SVG 1.1//EN" "http://www.w3.org/Graphics/SVG/1.1/DTD/svg11.dtd"><svg t="1737450857049" class="icon" viewBox="0 0 1024 1024" version="1.1" xmlns="http://www.w3.org/2000/svg" p-id="7551" xmlns:xlink="http://www.w3.org/1999/xlink" width="200" height="200"><path d="M514.133333 854.101333A341.248 341.248 0 0 1 173.226667 513.194667a341.248 341.248 0 0 1 340.906666-340.906667 341.248 341.248 0 0 1 340.906667 340.906667 341.248 341.248 0 0 1-340.906667 340.906666z m0-598.869333a258.218667 258.218667 0 0 0-257.877333 257.962667 258.218667 258.218667 0 0 0 257.877333 257.877333 258.218667 258.218667 0 0 0 257.877334-257.877333A258.218667 258.218667 0 0 0 514.133333 255.146667z" fill="#4E5969" p-id="7552"></path><path d="M888.490667 554.752H742.058667a41.557333 41.557333 0 0 1 0-83.029333h146.517333a41.557333 41.557333 0 1 1 0 83.029333z m-600.490667 0H141.482667a41.557333 41.557333 0 0 1 0-83.029333h146.517333a41.557333 41.557333 0 0 1 0 83.029333z m226.986667-226.986667a41.557333 41.557333 0 0 1-41.472-41.557333V139.776a41.557333 41.557333 0 0 1 82.944 0v146.346667c0 23.04-18.432 41.642667-41.472 41.642666z m0 600.490667a41.557333 41.557333 0 0 1-41.472-41.472V740.352a41.557333 41.557333 0 0 1 82.944 0v146.517333a41.472 41.472 0 0 1-41.472 41.386667z" fill="#4E5969" p-id="7553"></path></svg>