<svg width="1444" height="1445" xmlns="http://www.w3.org/2000/svg" xmlns:xlink="http://www.w3.org/1999/xlink" xml:space="preserve" overflow="hidden"><g transform="translate(-181 -190)"><path d="M718 912C718 810.932 799.932 729 901 729 1002.07 729 1084 810.932 1084 912 1084 1013.07 1002.07 1095 901 1095 799.932 1095 718 1013.07 718 912Z" stroke="#000000" stroke-width="32.0833" stroke-miterlimit="8" fill="none" fill-rule="evenodd"/><path d="M795 912C795 854.563 841.562 808 899 808 956.438 808 1003 854.563 1003 912 1003 969.438 956.438 1016 899 1016 841.562 1016 795 969.438 795 912Z" stroke="#000000" stroke-width="32.0833" stroke-miterlimit="8" fill="none" fill-rule="evenodd"/><path d="M718 912 1084.26 912" stroke="#000000" stroke-width="32.0833" stroke-miterlimit="8" fill="none" fill-rule="evenodd"/><path d="M901 341 901 1095.16" stroke="#000000" stroke-width="32.0833" stroke-miterlimit="8" fill="none" fill-rule="evenodd"/><path d="M764.5 499.5 903 221.5 1041.5 499.5Z" stroke="#172C51" stroke-width="4.58333" stroke-miterlimit="8" fill-rule="evenodd"/><path d="M183.5 912.5C183.5 514.855 505.631 192.5 903 192.5 1300.37 192.5 1622.5 514.855 1622.5 912.5 1622.5 1310.15 1300.37 1632.5 903 1632.5 505.631 1632.5 183.5 1310.15 183.5 912.5Z" stroke="#172C51" stroke-width="4.58333" stroke-miterlimit="8" stroke-opacity="0" fill="none" fill-rule="evenodd"/></g></svg>